<?xml version="1.0" encoding="UTF-8" standalone="no"?>
<!-- Created with Inkscape (http://www.inkscape.org/) -->

<svg
   xmlns:dc="http://purl.org/dc/elements/1.1/"
   xmlns:cc="http://creativecommons.org/ns#"
   xmlns:rdf="http://www.w3.org/1999/02/22-rdf-syntax-ns#"
   xmlns:svg="http://www.w3.org/2000/svg"
   xmlns="http://www.w3.org/2000/svg"
   xmlns:sodipodi="http://sodipodi.sourceforge.net/DTD/sodipodi-0.dtd"
   xmlns:inkscape="http://www.inkscape.org/namespaces/inkscape"
   width="602.36218"
   height="35.433071"
   id="svg2"
   version="1.1"
   inkscape:version="0.48.5 r10040"
   sodipodi:docname="Document_Header.svg">
  <defs
     id="defs4">
    <clipPath
       id="clipPath4353"
       clipPathUnits="userSpaceOnUse">
      <path
         id="path4355"
         d="m 34.348,291.722 105.316,0 0,-26.387 -105.316,0 0,26.387 z"
         inkscape:connector-curvature="0" />
    </clipPath>
    <clipPath
       id="clipPath4283"
       clipPathUnits="userSpaceOnUse">
      <path
         id="path4285"
         d="m 462.598,488.816 69.043,0 0,-2.25 -69.043,0 0,2.25 z"
         inkscape:connector-curvature="0" />
    </clipPath>
    <clipPath
       id="clipPath4273"
       clipPathUnits="userSpaceOnUse">
      <path
         id="path4275"
         d="m 356.055,488.816 105.043,0 0,-2.25 -105.043,0 0,2.25 z"
         inkscape:connector-curvature="0" />
    </clipPath>
    <clipPath
       id="clipPath4263"
       clipPathUnits="userSpaceOnUse">
      <path
         id="path4265"
         d="m 238.789,488.816 115.77,0 0,-2.25 -115.77,0 0,2.25 z"
         inkscape:connector-curvature="0" />
    </clipPath>
    <clipPath
       id="clipPath4253"
       clipPathUnits="userSpaceOnUse">
      <path
         id="path4255"
         d="m 164.133,488.816 73.156,0 0,-2.25 -73.156,0 0,2.25 z"
         inkscape:connector-curvature="0" />
    </clipPath>
    <clipPath
       id="clipPath4243"
       clipPathUnits="userSpaceOnUse">
      <path
         id="path4245"
         d="m 35.848,488.816 126.785,0 0,-2.25 -126.785,0 0,2.25 z"
         inkscape:connector-curvature="0" />
    </clipPath>
    <clipPath
       clipPathUnits="userSpaceOnUse"
       id="clipPath4243-1">
      <path
         inkscape:connector-curvature="0"
         d="m 35.848,488.816 126.785,0 0,-2.25 -126.785,0 0,2.25 z"
         id="path4245-3" />
    </clipPath>
    <clipPath
       clipPathUnits="userSpaceOnUse"
       id="clipPath4253-3">
      <path
         inkscape:connector-curvature="0"
         d="m 164.133,488.816 73.156,0 0,-2.25 -73.156,0 0,2.25 z"
         id="path4255-9" />
    </clipPath>
    <clipPath
       clipPathUnits="userSpaceOnUse"
       id="clipPath4263-2">
      <path
         inkscape:connector-curvature="0"
         d="m 238.789,488.816 115.77,0 0,-2.25 -115.77,0 0,2.25 z"
         id="path4265-8" />
    </clipPath>
    <clipPath
       clipPathUnits="userSpaceOnUse"
       id="clipPath4273-0">
      <path
         inkscape:connector-curvature="0"
         d="m 356.055,488.816 105.043,0 0,-2.25 -105.043,0 0,2.25 z"
         id="path4275-4" />
    </clipPath>
    <clipPath
       clipPathUnits="userSpaceOnUse"
       id="clipPath4283-2">
      <path
         inkscape:connector-curvature="0"
         d="m 462.598,488.816 69.043,0 0,-2.25 -69.043,0 0,2.25 z"
         id="path4285-7" />
    </clipPath>
    <clipPath
       clipPathUnits="userSpaceOnUse"
       id="clipPath4353-4">
      <path
         inkscape:connector-curvature="0"
         d="m 34.348,291.722 105.316,0 0,-26.387 -105.316,0 0,26.387 z"
         id="path4355-7" />
    </clipPath>
    <clipPath
       clipPathUnits="userSpaceOnUse"
       id="clipPath4243-9">
      <path
         inkscape:connector-curvature="0"
         d="m 35.848,488.816 126.785,0 0,-2.25 -126.785,0 0,2.25 z"
         id="path4245-4" />
    </clipPath>
    <clipPath
       clipPathUnits="userSpaceOnUse"
       id="clipPath4253-9">
      <path
         inkscape:connector-curvature="0"
         d="m 164.133,488.816 73.156,0 0,-2.25 -73.156,0 0,2.25 z"
         id="path4255-1" />
    </clipPath>
    <clipPath
       clipPathUnits="userSpaceOnUse"
       id="clipPath4263-5">
      <path
         inkscape:connector-curvature="0"
         d="m 238.789,488.816 115.77,0 0,-2.25 -115.77,0 0,2.25 z"
         id="path4265-6" />
    </clipPath>
    <clipPath
       clipPathUnits="userSpaceOnUse"
       id="clipPath4273-6">
      <path
         inkscape:connector-curvature="0"
         d="m 356.055,488.816 105.043,0 0,-2.25 -105.043,0 0,2.25 z"
         id="path4275-1" />
    </clipPath>
    <clipPath
       clipPathUnits="userSpaceOnUse"
       id="clipPath4283-1">
      <path
         inkscape:connector-curvature="0"
         d="m 462.598,488.816 69.043,0 0,-2.25 -69.043,0 0,2.25 z"
         id="path4285-2" />
    </clipPath>
    <clipPath
       clipPathUnits="userSpaceOnUse"
       id="clipPath4353-3">
      <path
         inkscape:connector-curvature="0"
         d="m 34.348,291.722 105.316,0 0,-26.387 -105.316,0 0,26.387 z"
         id="path4355-5" />
    </clipPath>
  </defs>
  <sodipodi:namedview
     id="base"
     pagecolor="#ffffff"
     bordercolor="#666666"
     borderopacity="1.0"
     inkscape:pageopacity="0.0"
     inkscape:pageshadow="2"
     inkscape:zoom="1"
     inkscape:cx="427.91256"
     inkscape:cy="27.247142"
     inkscape:document-units="px"
     inkscape:current-layer="layer1-9"
     showgrid="false"
     inkscape:window-width="1440"
     inkscape:window-height="861"
     inkscape:window-x="1440"
     inkscape:window-y="0"
     inkscape:window-maximized="1"
     fit-margin-top="0"
     fit-margin-left="0"
     fit-margin-right="0"
     fit-margin-bottom="0"
     showborder="true"
     inkscape:showpageshadow="false"
     units="mm" />
  <metadata
     id="metadata7">
    <rdf:RDF>
      <cc:Work
         rdf:about="">
        <dc:format>image/svg+xml</dc:format>
        <dc:type
           rdf:resource="http://purl.org/dc/dcmitype/StillImage" />
        <dc:title />
      </cc:Work>
    </rdf:RDF>
  </metadata>
  <g
     inkscape:label="Layer 1"
     inkscape:groupmode="layer"
     id="layer1"
     transform="translate(0,-1016.9294)">
    <g
       id="g3894"
       transform="matrix(0.4528159,0,0,0.4528159,0.64966991,565.81734)">
      <g
         transform="matrix(2.208403,0,0,2.208403,222.8623,-1147.6897)"
         id="layer1-9"
         inkscape:label="Layer 1">
        <g
           id="g4023"
           transform="translate(-101.56526,-46.125202)">
          <path
             inkscape:connector-curvature="0"
             style="fill:#c0c0c0;fill-opacity:1;fill-rule:evenodd;stroke:none"
             d="m 587.91499,1034.6601 0,-0.7783 -571.924932,0 c -2.374619,-2.3685 -4.830128,-4.8443 -7.2309014,-7.245 -0.9190133,0.7126 -2.0865528,1.1461 -3.3395169,1.1461 C 2.4195676,1027.7829 0,1025.3634 0,1022.3633 c 0,-3.0001 2.4195676,-5.4338 5.4196397,-5.4338 3.0000725,0 5.4337903,2.4337 5.4337903,5.4338 0,1.2557 -0.416606,2.4054 -1.1320397,3.3254 l 6.8346877,6.8347 574.160712,-0.014 c 0.0417,-0.038 0.0879,-0.072 0.12735,-0.1132 0.34639,-0.3463 0.60508,-0.7999 0.77828,-1.3442 0.18556,-0.5444 0.26886,-1.2018 0.26886,-1.9811 l 0,-6.7074 c 0,-0.8412 0.11515,-1.596 0.32546,-2.264 0.2103,-0.6681 0.51154,-1.228 0.91978,-1.6981 0.40824,-0.4701 0.92207,-0.828 1.52826,-1.0754 0.61854,-0.2598 1.3326,-0.3962 2.13672,-0.3962 l 2.50464,0 0,2.3914 -1.17449,0 c -1.12577,0 -1.92312,0.3384 -2.40558,1.0188 -0.47011,0.6681 -0.70753,1.6603 -0.70753,2.9716 l 0,6.6224 c -10e-6,0.631 -0.0974,1.2068 -0.28301,1.7264 -0.1732,0.5196 -0.41419,0.9767 -0.73582,1.3726 -0.30929,0.4082 -0.6867,0.7608 -1.13204,1.033 -0.433,0.2722 -0.92556,0.4706 -1.45751,0.5943 z M 5.4196397,1026.1556 c 2.1016393,0 3.8206337,-1.6907 3.8206337,-3.7923 0,-2.1016 -1.7189944,-3.8206 -3.8206337,-3.8206 -2.1016393,0 -3.7923327,1.719 -3.7923327,3.8206 0,2.1016 1.6906934,3.7923 3.7923327,3.7923 z"
             id="path2987-2-1-1"
             sodipodi:nodetypes="ccccsssscccccssssccccscsccccccsssss" />
          <path
             inkscape:connector-curvature="0"
             style="color:#000000;fill:#919191;fill-opacity:1;fill-rule:evenodd;stroke:none;stroke-width:0.35971975;marker:none;visibility:visible;display:inline;overflow:visible;enable-background:accumulate"
             d="m 596.82662,1052.3624 c -0.80412,0 -1.51818,-0.1365 -2.13672,-0.3962 -0.60619,-0.2475 -1.12002,-0.6054 -1.52826,-1.0755 -0.40824,-0.4701 -0.70948,-1.0442 -0.91978,-1.7122 -0.21031,-0.6681 -0.32546,-1.4229 -0.32546,-2.2641 l 0,-6.6932 c 0,-0.7793 -0.0833,-1.4367 -0.26886,-1.981 -0.1732,-0.5444 -0.43189,-0.9979 -0.77828,-1.3443 -0.0487,-0.051 -0.10355,-0.095 -0.15565,-0.1416 l -574.157532,-0.014 -6.8346877,6.8488 c 0.7154347,0.92 1.1320397,2.0697 1.1320397,3.3254 0,3.0001 -2.4337178,5.4338 -5.4337903,5.4338 C 2.4195672,1052.3483 0,1049.9146 0,1046.9145 c 0,-3 2.4195672,-5.4338 5.4196397,-5.4338 1.2529659,0 2.4205027,0.4477 3.3395169,1.1603 2.4007724,-2.4007 4.8562824,-4.8765 7.2309014,-7.245 l 571.950052,0 0,-0.7641 3.49517,0 c 0.53195,0.1237 1.02451,0.3221 1.45751,0.5943 0.44534,0.2722 0.82275,0.6106 1.13204,1.0188 0.32163,0.3959 0.56262,0.8531 0.73582,1.3726 0.18556,0.5196 0.283,1.0955 0.28301,1.7264 l 0,6.6224 c 0,1.3113 0.23742,2.3036 0.70753,2.9716 0.48246,0.6804 1.27981,1.0189 2.40558,1.0189 l 1.17449,0 0,2.4056 z M 5.4196397,1050.735 c 2.1016393,0 3.8206337,-1.7189 3.8206337,-3.8206 0,-2.1016 -1.7189944,-3.7923 -3.8206337,-3.7923 -2.1016388,0 -3.7923327,1.6907 -3.7923327,3.7923 0,2.1017 1.6906939,3.8206 3.7923327,3.8206 z"
             id="path2987-2-1-1-9"
             sodipodi:nodetypes="ccsssscccccsssscccccccccscscccsssss" />
          <path
             inkscape:connector-curvature="0"
             style="font-size:95.98564911px;font-style:normal;font-variant:normal;font-weight:normal;font-stretch:normal;text-align:start;line-height:100%;letter-spacing:0px;word-spacing:0px;writing-mode:lr-tb;text-anchor:start;color:#000000;fill:#ff8181;fill-opacity:1;fill-rule:evenodd;stroke:none;marker:none;visibility:visible;font-family:Liberation Sans;-inkscape-font-specification:Liberation Sans"
             d="m 599.91733,1052.3624 c -1.62061,-10e-5 -2.85028,-0.4749 -3.67913,-1.4151 -0.81649,-0.9402 -1.21694,-2.2886 -1.21694,-4.0329 l 0,-6.7073 c 0,-0.767 -0.0975,-1.8189 -0.28301,-2.3631 -0.1732,-0.5444 -0.4319,-0.998 -0.77828,-1.3444 -0.33402,-0.3464 -0.75041,-0.6051 -1.24524,-0.7782 -0.49484,-0.1732 -1.05299,-0.2725 -1.68391,-0.2972 l 0,-0.028 -580.233992,0 C 10.427666,1038.037 8.1621655,1040.08 5.4196397,1040.08 2.4195672,1040.0795 0,1037.6458 0,1034.6457 c 0,-3.0001 2.4195672,-5.4338 5.4196397,-5.4338 2.7399276,0 5.0047843,2.0325 5.3771883,4.6697 l 580.233992,0 0,-0.014 c 0.63092,-0.025 1.18907,-0.124 1.68391,-0.2972 0.49483,-0.1732 0.91122,-0.4319 1.24524,-0.7783 0.34638,-0.3463 0.60508,-0.7999 0.77828,-1.3443 0.18556,-0.5443 0.28301,-1.5979 0.28301,-2.3772 l 0,-6.7074 c 0,-0.8412 0.101,-1.596 0.31131,-2.2641 0.2103,-0.668 0.52568,-1.2279 0.93393,-1.698 0.40824,-0.4701 0.90792,-0.828 1.5141,-1.0755 0.61854,-0.2597 1.33261,-0.3962 2.13673,-0.3962 l 2.50464,0 0,2.3915 -1.17449,0 c -1.12577,0 -1.92313,0.3384 -2.40559,1.0188 -0.4701,0.668 -0.70752,1.6603 -0.70752,2.9716 l 0,6.6224 c -10e-6,0.6309 -0.0833,1.2068 -0.26886,1.7264 -0.1732,0.5196 -0.42834,0.9767 -0.74998,1.3726 -0.30928,0.4082 -0.68669,0.7608 -1.13204,1.033 -0.43299,0.2721 -0.9114,0.4706 -1.44335,0.5943 l 0,0.028 c 0.5072,0.1237 0.96791,0.3222 1.4009,0.5943 0.44535,0.2722 0.83869,0.6088 1.16034,1.0047 0.32164,0.3959 0.57855,0.8531 0.76413,1.3726 0.18555,0.5196 0.26885,1.0937 0.26886,1.7122 l 0,6.5942 c 0,1.336 0.23742,2.3442 0.70752,2.9999 0.48246,0.668 1.27982,0.9905 2.40559,0.9905 l 1.17449,0 0,2.4056 z M 5.4196397,1038.4383 c 2.1016388,0 3.8206337,-1.6907 3.8206337,-3.7924 0,-2.1016 -1.7189949,-3.8065 -3.8206337,-3.8065 -2.1016388,0 -3.7923327,1.7049 -3.7923327,3.8065 0,2.1017 1.6906939,3.7924 3.7923327,3.7924 z"
             id="path4170"
             sodipodi:nodetypes="ccssccccccsssccccccssssccccscscccccccsccscccccsssss" />
        </g>
      </g>
    </g>
  </g>
</svg>
