<?xml version="1.0" encoding="UTF-8" standalone="no"?>
<!-- Created with Inkscape (http://www.inkscape.org/) -->

<svg
   xmlns:dc="http://purl.org/dc/elements/1.1/"
   xmlns:cc="http://creativecommons.org/ns#"
   xmlns:rdf="http://www.w3.org/1999/02/22-rdf-syntax-ns#"
   xmlns:svg="http://www.w3.org/2000/svg"
   xmlns="http://www.w3.org/2000/svg"
   xmlns:sodipodi="http://sodipodi.sourceforge.net/DTD/sodipodi-0.dtd"
   xmlns:inkscape="http://www.inkscape.org/namespaces/inkscape"
   width="642.51965"
   height="37.795277"
   id="svg2"
   version="1.1"
   inkscape:version="0.92.1 r15371"
   sodipodi:docname="header.svg">
  <defs
     id="defs4">
    <clipPath
       id="clipPath4353"
       clipPathUnits="userSpaceOnUse">
      <path
         id="path4355"
         d="M 34.348,291.722 H 139.664 V 265.335 H 34.348 Z"
         inkscape:connector-curvature="0" />
    </clipPath>
    <clipPath
       id="clipPath4283"
       clipPathUnits="userSpaceOnUse">
      <path
         id="path4285"
         d="m 462.598,488.816 h 69.043 v -2.25 h -69.043 z"
         inkscape:connector-curvature="0" />
    </clipPath>
    <clipPath
       id="clipPath4273"
       clipPathUnits="userSpaceOnUse">
      <path
         id="path4275"
         d="m 356.055,488.816 h 105.043 v -2.25 H 356.055 Z"
         inkscape:connector-curvature="0" />
    </clipPath>
    <clipPath
       id="clipPath4263"
       clipPathUnits="userSpaceOnUse">
      <path
         id="path4265"
         d="m 238.789,488.816 h 115.77 v -2.25 h -115.77 z"
         inkscape:connector-curvature="0" />
    </clipPath>
    <clipPath
       id="clipPath4253"
       clipPathUnits="userSpaceOnUse">
      <path
         id="path4255"
         d="m 164.133,488.816 h 73.156 v -2.25 h -73.156 z"
         inkscape:connector-curvature="0" />
    </clipPath>
    <clipPath
       id="clipPath4243"
       clipPathUnits="userSpaceOnUse">
      <path
         id="path4245"
         d="m 35.848,488.816 h 126.785 v -2.25 H 35.848 Z"
         inkscape:connector-curvature="0" />
    </clipPath>
    <clipPath
       clipPathUnits="userSpaceOnUse"
       id="clipPath4243-1">
      <path
         inkscape:connector-curvature="0"
         d="m 35.848,488.816 h 126.785 v -2.25 H 35.848 Z"
         id="path4245-3" />
    </clipPath>
    <clipPath
       clipPathUnits="userSpaceOnUse"
       id="clipPath4253-3">
      <path
         inkscape:connector-curvature="0"
         d="m 164.133,488.816 h 73.156 v -2.25 h -73.156 z"
         id="path4255-9" />
    </clipPath>
    <clipPath
       clipPathUnits="userSpaceOnUse"
       id="clipPath4263-2">
      <path
         inkscape:connector-curvature="0"
         d="m 238.789,488.816 h 115.77 v -2.25 h -115.77 z"
         id="path4265-8" />
    </clipPath>
    <clipPath
       clipPathUnits="userSpaceOnUse"
       id="clipPath4273-0">
      <path
         inkscape:connector-curvature="0"
         d="m 356.055,488.816 h 105.043 v -2.25 H 356.055 Z"
         id="path4275-4" />
    </clipPath>
    <clipPath
       clipPathUnits="userSpaceOnUse"
       id="clipPath4283-2">
      <path
         inkscape:connector-curvature="0"
         d="m 462.598,488.816 h 69.043 v -2.25 h -69.043 z"
         id="path4285-7" />
    </clipPath>
    <clipPath
       clipPathUnits="userSpaceOnUse"
       id="clipPath4353-4">
      <path
         inkscape:connector-curvature="0"
         d="M 34.348,291.722 H 139.664 V 265.335 H 34.348 Z"
         id="path4355-7" />
    </clipPath>
    <clipPath
       clipPathUnits="userSpaceOnUse"
       id="clipPath4243-9">
      <path
         inkscape:connector-curvature="0"
         d="m 35.848,488.816 h 126.785 v -2.25 H 35.848 Z"
         id="path4245-4" />
    </clipPath>
    <clipPath
       clipPathUnits="userSpaceOnUse"
       id="clipPath4253-9">
      <path
         inkscape:connector-curvature="0"
         d="m 164.133,488.816 h 73.156 v -2.25 h -73.156 z"
         id="path4255-1" />
    </clipPath>
    <clipPath
       clipPathUnits="userSpaceOnUse"
       id="clipPath4263-5">
      <path
         inkscape:connector-curvature="0"
         d="m 238.789,488.816 h 115.77 v -2.25 h -115.77 z"
         id="path4265-6" />
    </clipPath>
    <clipPath
       clipPathUnits="userSpaceOnUse"
       id="clipPath4273-6">
      <path
         inkscape:connector-curvature="0"
         d="m 356.055,488.816 h 105.043 v -2.25 H 356.055 Z"
         id="path4275-1" />
    </clipPath>
    <clipPath
       clipPathUnits="userSpaceOnUse"
       id="clipPath4283-1">
      <path
         inkscape:connector-curvature="0"
         d="m 462.598,488.816 h 69.043 v -2.25 h -69.043 z"
         id="path4285-2" />
    </clipPath>
    <clipPath
       clipPathUnits="userSpaceOnUse"
       id="clipPath4353-3">
      <path
         inkscape:connector-curvature="0"
         d="M 34.348,291.722 H 139.664 V 265.335 H 34.348 Z"
         id="path4355-5" />
    </clipPath>
  </defs>
  <sodipodi:namedview
     id="base"
     pagecolor="#ffffff"
     bordercolor="#666666"
     borderopacity="1.0"
     inkscape:pageopacity="0.0"
     inkscape:pageshadow="2"
     inkscape:zoom="1"
     inkscape:cx="223.91256"
     inkscape:cy="27.247142"
     inkscape:document-units="px"
     inkscape:current-layer="layer1-9"
     showgrid="false"
     inkscape:window-width="1440"
     inkscape:window-height="801"
     inkscape:window-x="0"
     inkscape:window-y="28"
     inkscape:window-maximized="1"
     fit-margin-top="0"
     fit-margin-left="0"
     fit-margin-right="0"
     fit-margin-bottom="0"
     showborder="true"
     inkscape:showpageshadow="false"
     units="mm" />
  <metadata
     id="metadata7">
    <rdf:RDF>
      <cc:Work
         rdf:about="">
        <dc:format>image/svg+xml</dc:format>
        <dc:type
           rdf:resource="http://purl.org/dc/dcmitype/StillImage" />
        <dc:title></dc:title>
      </cc:Work>
    </rdf:RDF>
  </metadata>
  <g
     inkscape:label="Layer 1"
     inkscape:groupmode="layer"
     id="layer1"
     transform="translate(0,-1084.7247)">
    <g
       id="g3894"
       transform="matrix(0.4528159,0,0,0.4528159,0.69298124,603.5385)">
      <g
         transform="matrix(2.208403,0,0,2.208403,237.71979,-1224.2023)"
         id="layer1-9"
         inkscape:label="Layer 1">
        <g
           id="g4023"
           transform="translate(-108.33628,-49.200215)">
          <path
             inkscape:connector-curvature="0"
             style="fill:#c0c0c0;fill-opacity:1;fill-rule:evenodd;stroke:none;stroke-width:1.06666672"
             d="m 627.10932,1103.6374 v -0.8301 H 17.056062 c -2.532927,-2.5264 -5.152137,-5.1673 -7.7129616,-7.728 -0.9802809,0.7601 -2.2256563,1.2225 -3.5621514,1.2225 C 2.5808721,1096.3018 0,1093.721 0,1090.5209 c 0,-3.2002 2.5808721,-5.7961 5.780949,-5.7961 3.2000773,0 5.796043,2.5959 5.796043,5.7961 0,1.3394 -0.44438,2.5657 -1.207509,3.547 l 7.290334,7.2904 612.438093,-0.015 c 0.0445,-0.041 0.0938,-0.077 0.13584,-0.1208 0.36948,-0.3694 0.64542,-0.8532 0.83016,-1.4338 0.19794,-0.5807 0.28679,-1.2819 0.28679,-2.1132 v -7.1545 c 0,-0.8973 0.12283,-1.7024 0.34716,-2.415 0.22432,-0.7126 0.54564,-1.3098 0.98109,-1.8113 0.43546,-0.5014 0.98355,-0.8832 1.63015,-1.1471 0.65977,-0.2771 1.42144,-0.4226 2.27917,-0.4226 h 2.67161 v 2.5508 h -1.25279 c -1.20082,0 -2.05132,0.361 -2.56595,1.0868 -0.50145,0.7126 -0.7547,1.771 -0.7547,3.1697 v 7.0639 c -10e-6,0.673 -0.10389,1.2872 -0.30187,1.8415 -0.18475,0.5542 -0.44181,1.0418 -0.78488,1.4641 -0.32991,0.4354 -0.73248,0.8115 -1.20751,1.1018 -0.46187,0.2904 -0.98726,0.502 -1.55468,0.634 z M 5.780949,1094.566 c 2.2417486,0 4.0753426,-1.8034 4.0753426,-4.0451 0,-2.2418 -1.833594,-4.0754 -4.0753426,-4.0754 -2.2417486,0 -4.0451549,1.8336 -4.0451549,4.0754 0,2.2417 1.8034063,4.0451 4.0451549,4.0451 z"
             id="path2987-2-1-1"
             sodipodi:nodetypes="ccccsssscccccssssccccscsccccccsssss" />
          <path
             inkscape:connector-curvature="0"
             style="color:#000000;display:inline;overflow:visible;visibility:visible;fill:#919191;fill-opacity:1;fill-rule:evenodd;stroke:none;stroke-width:0.38370106;marker:none;enable-background:accumulate"
             d="m 636.61506,1122.5199 c -0.85773,0 -1.61939,-0.1456 -2.27917,-0.4226 -0.6466,-0.264 -1.19468,-0.6458 -1.63014,-1.1472 -0.43546,-0.5015 -0.75678,-1.1138 -0.9811,-1.8264 -0.22433,-0.7126 -0.34716,-1.5177 -0.34716,-2.415 v -7.1394 c 0,-0.8313 -0.0888,-1.5325 -0.28678,-2.1131 -0.18475,-0.5807 -0.46068,-1.0644 -0.83017,-1.4339 -0.0519,-0.054 -0.11045,-0.1013 -0.16602,-0.151 l -612.434703,-0.015 -7.290334,7.3054 c 0.76313,0.9813 1.207509,2.2077 1.207509,3.5471 0,3.2001 -2.5959657,5.7961 -5.796043,5.7961 -3.2000773,0 -5.780949,-2.596 -5.780949,-5.7961 0,-3.2 2.5808717,-5.7961 5.780949,-5.7961 1.336497,0 2.5818696,0.4776 3.5621514,1.2377 2.5608236,-2.5607 5.1800346,-5.2016 7.7129616,-7.728 H 627.13612 v -0.815 h 3.72818 c 0.56741,0.1319 1.09281,0.3435 1.55468,0.6339 0.47503,0.2903 0.8776,0.6513 1.20751,1.0867 0.34307,0.4223 0.60012,0.91 0.78487,1.4641 0.19793,0.5542 0.30187,1.1685 0.30188,1.8415 v 7.0639 c 0,1.3987 0.25325,2.4572 0.7547,3.1697 0.51462,0.7258 1.36513,1.0868 2.56595,1.0868 h 1.25279 v 2.566 z M 5.780949,1120.784 c 2.2417486,0 4.0753426,-1.8335 4.0753426,-4.0753 0,-2.2417 -1.833594,-4.0451 -4.0753426,-4.0451 -2.241748,0 -4.0451549,1.8034 -4.0451549,4.0451 0,2.2418 1.8034069,4.0753 4.0451549,4.0753 z"
             id="path2987-2-1-1-9"
             sodipodi:nodetypes="ccsssscccccsssscccccccccscscccsssss" />
          <path
             inkscape:connector-curvature="0"
             style="color:#000000;font-style:normal;font-variant:normal;font-weight:normal;font-stretch:normal;font-size:95.98564911px;line-height:100%;font-family:'Liberation Sans';-inkscape-font-specification:'Liberation Sans';text-align:start;letter-spacing:0px;word-spacing:0px;writing-mode:lr-tb;text-anchor:start;visibility:visible;fill:#ff8181;fill-opacity:1;fill-rule:evenodd;stroke:none;stroke-width:1.06666672;marker:none"
             d="m 639.91182,1122.5199 c -1.72865,-10e-5 -3.0403,-0.5066 -3.92441,-1.5094 -0.87092,-1.0029 -1.29807,-2.4412 -1.29807,-4.3018 v -7.1545 c 0,-0.8181 -0.104,-1.9401 -0.30187,-2.5206 -0.18475,-0.5807 -0.4607,-1.0645 -0.83017,-1.434 -0.35629,-0.3695 -0.80044,-0.6455 -1.32825,-0.8301 -0.52783,-0.1848 -1.12319,-0.2907 -1.79618,-0.317 v -0.03 H 11.516617 c -0.393773,2.8169 -2.8103071,4.9961 -5.735668,4.9961 C 2.5808717,1109.4181 0,1106.8222 0,1103.6221 c 0,-3.2001 2.5808717,-5.7961 5.780949,-5.7961 2.9225895,0 5.338437,2.168 5.735668,4.981 H 630.43287 v -0.015 c 0.67299,-0.027 1.26835,-0.1323 1.79618,-0.317 0.52781,-0.1848 0.97196,-0.4607 1.32825,-0.8302 0.36947,-0.3694 0.64542,-0.8532 0.83017,-1.4339 0.19793,-0.5806 0.30187,-1.7044 0.30187,-2.5357 v -7.1546 c 0,-0.8972 0.10774,-1.7024 0.33207,-2.415 0.22432,-0.7125 0.56072,-1.3098 0.99619,-1.8112 0.43546,-0.5014 0.96845,-0.8832 1.61504,-1.1472 0.65978,-0.277 1.42145,-0.4226 2.27918,-0.4226 h 2.67161 v 2.5509 h -1.25278 c -1.20083,0 -2.05134,0.361 -2.56597,1.0867 -0.50144,0.7126 -0.75469,1.771 -0.75469,3.1698 v 7.0638 c -10e-6,0.673 -0.0888,1.2873 -0.28678,1.8415 -0.18475,0.5543 -0.4569,1.0419 -0.79998,1.4641 -0.3299,0.4355 -0.73247,0.8116 -1.20751,1.1019 -0.46185,0.2903 -0.97216,0.502 -1.53957,0.6339 v 0.03 c 0.54101,0.1319 1.03244,0.3437 1.49429,0.6339 0.47504,0.2904 0.89461,0.6494 1.2377,1.0717 0.34308,0.4223 0.61712,0.91 0.81507,1.4641 0.19792,0.5542 0.28677,1.1666 0.28678,1.8264 v 7.0338 c 0,1.425 0.25325,2.5004 0.75469,3.1999 0.51463,0.7125 1.36514,1.0565 2.56597,1.0565 h 1.25278 v 2.566 z M 5.780949,1107.6675 c 2.2417481,0 4.0753426,-1.8034 4.0753426,-4.0452 0,-2.2417 -1.8335945,-4.0603 -4.0753426,-4.0603 -2.241748,0 -4.0451549,1.8186 -4.0451549,4.0603 0,2.2418 1.8034069,4.0452 4.0451549,4.0452 z"
             id="path4170"
             sodipodi:nodetypes="ccssccccccsssccccccssssccccscscccccccsccscccccsssss" />
        </g>
      </g>
    </g>
  </g>
</svg>
